<svg width="83" height="83" viewBox="0 0 83 83" fill="none" xmlns="http://www.w3.org/2000/svg">
    <path d="M58.3756 54.8577H63.6604C65.3625 54.8577 66.7404 56.2356 66.7404 57.9378C66.7404 59.6399 65.3625 61.0179 63.6604 61.0179H58.2783V66.3999C58.2783 68.102 56.9004 69.48 55.1982 69.48C53.4961 69.48 52.1182 68.102 52.1182 66.3999V61.0179H50.6592L38.7279 70.5499C42.5213 75.4942 48.4869 78.6878 55.1982 78.6878C66.6432 78.6878 75.9482 69.3827 75.9482 57.9378C75.9482 52.8962 74.1326 48.2761 71.1336 44.6772L58.3756 54.8577Z" fill="#921FED"/>
    <path d="M46.7523 61.0017C45.0502 61.0017 43.6723 59.6238 43.6723 57.9216C43.6723 56.2195 45.0502 54.8416 46.7523 54.8416H52.1344V49.4595C52.1344 47.7574 53.5123 46.3794 55.2144 46.3794C56.9166 46.3794 58.2945 47.7574 58.2945 49.4595V54.8416H58.3918L71.166 44.6449C67.3564 40.0734 61.634 37.1716 55.2307 37.1716C43.7857 37.1716 34.4807 46.4767 34.4807 57.9216C34.4807 62.6552 36.0855 67.0322 38.7603 70.5338L50.6916 61.0017H46.7523Z" fill="#B372F2"/>
    <path d="M30.59 36.7663C30.5414 36.28 30.3955 35.7937 30.2172 35.3397C30.1199 35.0966 30.0226 34.8696 29.9254 34.6265L26.7805 37.739C27.1695 38.128 27.6234 38.4198 28.1422 38.6306C29.5039 39.1655 30.7359 38.2091 30.59 36.7663Z" fill="#FF7A00"/>
    <path d="M33.0703 30.7198C33.1027 30.9467 33.1352 31.1737 33.2 31.4006L35.3723 29.2608C35.3074 29.2284 35.2264 29.1797 35.1453 29.1473C33.9619 28.6934 32.9244 29.4553 33.0703 30.7198Z" fill="#FF7A00"/>
    <path d="M73.1762 17.6212C73.1275 17.5726 73.0951 17.5402 73.0465 17.4916C70.6473 15.0923 67.1457 12.8714 63.1578 11.2017C62.4445 10.8937 61.6988 10.6181 60.9693 10.375V10.3263C60.9531 8.57554 60.1588 7.01929 58.943 5.96558L51.4535 13.3578C51.5508 13.4388 51.648 13.5199 51.7291 13.6171C52.7666 14.6546 53.1719 16.065 52.9773 17.4105C54.6795 18.6263 56.7221 19.7287 58.8943 20.6365C59.6725 20.9607 60.402 21.2363 61.1314 21.4794L61.0504 15.2382C61.1801 15.3031 61.2936 15.3355 61.4232 15.4003C64.8275 16.8107 67.8752 18.7398 69.8529 20.7175C69.8853 20.75 69.9178 20.7824 69.934 20.7986C71.8145 22.6791 71.9928 23.8949 71.8307 24.2839C71.3443 25.4511 66.1082 26.4724 58.1648 23.1654C55.8305 22.1927 53.6744 20.9931 51.8912 19.6962C51.8264 19.7611 51.7615 19.8421 51.6967 19.907C49.9621 21.6416 47.1414 21.6416 45.4068 19.907C45.3096 19.8097 45.2123 19.6962 45.115 19.5828L39.8141 24.8189C39.96 24.9648 40.1059 25.1107 40.268 25.2728C41.3703 26.3751 41.3703 26.3751 40.268 27.4775C39.4898 28.2556 39.4898 28.2556 40.1383 29.1472C40.6408 29.8443 41.0299 30.5738 41.3379 31.3681C41.5 31.8058 41.4027 32.13 40.9975 32.357C40.3977 32.6812 39.7654 33.0541 39.1494 33.3621C38.5658 33.6701 38.3551 33.589 38.1443 32.9568C37.6904 31.6923 36.9771 30.6062 35.9883 29.7146C35.7938 29.5363 35.583 29.3742 35.3561 29.2445L33.1838 31.3843C33.2811 31.7734 33.427 32.1625 33.5729 32.5353C33.9943 33.5566 34.432 34.5779 34.74 35.6478C35.7127 39.0521 33.5566 42.3916 30.1361 42.7158C28.9041 42.8292 27.7207 42.5699 26.6346 41.9539C26.1645 41.6783 25.7916 41.7107 25.435 42.116C25.0783 42.505 24.673 42.8617 24.3002 43.2345C23.976 43.5587 23.6031 43.5749 23.2789 43.2507C22.9223 42.9103 22.5656 42.5537 22.209 42.197L16.2109 48.1627L25.4188 57.3705C27.0885 59.0402 29.5688 59.3644 31.5789 58.3918C31.5789 58.2296 31.5789 58.0837 31.5789 57.9216C31.5789 44.888 42.1809 34.2861 55.2145 34.2861C55.5063 34.2861 55.7818 34.2861 56.0736 34.3023L58.9916 31.3843C59.7373 30.6386 60.3047 29.7632 60.6937 28.7906C63.3037 29.5201 65.8326 29.9091 68.0697 29.8929C73.5977 29.8605 75.4295 27.4451 76.0455 26.0023C76.6129 24.5757 77.0506 21.5767 73.1762 17.6212Z" fill="#FF7A00"/>
    <path d="M22.0793 42.0674C21.7389 41.7108 21.7551 41.3379 22.1117 40.9813C22.3873 40.7057 22.6629 40.4139 22.9385 40.1383C23.5383 39.5223 23.5383 39.4736 23.052 38.7928C22.4197 37.9336 21.8523 37.0258 21.5119 36.0045C21.2363 35.2102 21.3174 35.0156 22.0307 34.6104C22.5656 34.3024 23.1006 34.0106 23.6518 33.7188C24.284 33.3945 24.4785 33.4594 24.6893 34.1402C25.0459 35.2912 25.6457 36.3125 26.3752 37.269C26.5049 37.4473 26.6508 37.5932 26.7967 37.7391L29.9416 34.6266C29.5525 33.6863 29.1148 32.7623 28.8879 31.7734C28.3854 29.7633 28.6123 27.9152 30.2496 26.4725C32.0977 24.8514 34.1564 24.7379 36.3287 25.7592C37.2203 26.1807 37.2203 26.1969 37.9174 25.4998C38.1443 25.2729 38.3713 25.0459 38.6307 24.8027C39.1656 24.3002 39.3439 24.3002 39.8627 24.8027C39.8789 24.819 39.8789 24.819 39.8951 24.8352L45.1961 19.599C43.7695 17.8645 43.8668 15.2707 45.4879 13.6334C47.1252 11.9961 49.7514 11.915 51.4859 13.374L58.9754 5.98184C57.9703 5.10645 56.6572 4.57149 55.2145 4.55528L39.652 4.32833C37.5932 4.29591 35.5992 5.10645 34.1402 6.56544L8.1541 32.5354C6.06289 34.6266 6.06289 38.0309 8.1541 40.1221L16.2109 48.1789L22.2414 42.2295C22.1928 42.1647 22.1279 42.116 22.0793 42.0674Z" fill="#FCA054"/>
    <path d="M48.6653 19.5018C50.044 19.5018 51.1617 18.384 51.1617 17.0053C51.1617 15.6265 50.044 14.5088 48.6653 14.5088C47.2865 14.5088 46.1688 15.6265 46.1688 17.0053C46.1688 18.384 47.2865 19.5018 48.6653 19.5018Z" fill="#F9CB04"/>
</svg>
