<svg width="83" height="83" viewBox="0 0 83 83" fill="none" xmlns="http://www.w3.org/2000/svg">
    <path d="M81.3465 31.8221C81.0709 30.8818 80.2765 30.282 79.2877 30.1848L53.2529 28.4988L43.6074 4.23105C43.2832 3.38809 42.3916 2.9666 41.5 2.91797C40.5597 2.91797 39.6195 3.33945 39.2467 4.23105L29.6011 28.4988L3.72849 30.1848C2.73962 30.282 1.94528 30.8818 1.62107 31.8221C1.34548 32.7137 1.62107 33.735 2.36677 34.351L22.29 51.032L15.8218 76.3373C15.5949 77.2289 15.9677 78.2178 16.7134 78.7689C17.5078 79.3363 18.5453 79.385 19.3396 78.8662L41.5 64.9572L63.482 78.8662C64.325 79.385 65.3625 79.3363 66.1568 78.7689C66.9025 78.2016 67.2754 77.2775 67.0484 76.3373L60.5802 51.032L80.6656 34.351C81.3951 33.7512 81.6869 32.7137 81.3465 31.8221Z" fill="#FCECA0"/>
    <path d="M80.6494 34.351L60.564 51.032L67.0322 76.3373C67.2592 77.2775 66.8863 78.2178 66.1406 78.7689C65.3463 79.3363 64.3088 79.385 63.4658 78.8662L41.5 64.9572V2.91797C42.3916 2.9666 43.2832 3.38809 43.6074 4.23105L53.2529 28.4988L79.2877 30.1848C80.2765 30.282 81.0709 30.8818 81.3465 31.8221C81.6869 32.7137 81.3951 33.7512 80.6494 34.351Z" fill="#F9CB04"/>
    <path d="M43.8344 77.7476C43.8344 79.0606 42.7969 80.0981 41.4838 80.0981C40.1707 80.0981 39.1332 79.0606 39.1332 77.7476C39.1332 76.4345 40.1707 75.397 41.4838 75.397C42.8131 75.397 43.8344 76.4345 43.8344 77.7476Z" fill="#B372F2"/>
    <path d="M72.6898 57.4192C73.988 57.4192 75.0404 56.3668 75.0404 55.0686C75.0404 53.7704 73.988 52.718 72.6898 52.718C71.3916 52.718 70.3392 53.7704 70.3392 55.0686C70.3392 56.3668 71.3916 57.4192 72.6898 57.4192Z" fill="#921FED"/>
    <path d="M60.7748 20.7661C62.073 20.7661 63.1254 19.7137 63.1254 18.4155C63.1254 17.1173 62.073 16.0649 60.7748 16.0649C59.4766 16.0649 58.4242 17.1173 58.4242 18.4155C58.4242 19.7137 59.4766 20.7661 60.7748 20.7661Z" fill="#921FED"/>
    <path d="M22.209 20.7661C23.5071 20.7661 24.5595 19.7137 24.5595 18.4155C24.5595 17.1173 23.5071 16.0649 22.209 16.0649C20.9108 16.0649 19.8584 17.1173 19.8584 18.4155C19.8584 19.7137 20.9108 20.7661 22.209 20.7661Z" fill="#B372F2"/>
    <path d="M10.2939 57.4353C11.5921 57.4353 12.6445 56.3829 12.6445 55.0847C12.6445 53.7865 11.5921 52.7341 10.2939 52.7341C8.99575 52.7341 7.94336 53.7865 7.94336 55.0847C7.94336 56.3829 8.99575 57.4353 10.2939 57.4353Z" fill="#B372F2"/>
    <path d="M43.8344 77.7476C43.8344 79.0607 42.7969 80.0982 41.4838 80.0982V75.4133C42.8131 75.3971 43.8344 76.4346 43.8344 77.7476Z" fill="#921FED"/>
    <path d="M57.2894 39.652C57.0138 38.7118 56.1709 38.112 55.2306 38.0147L46.7523 37.496L43.6074 29.5688C43.2832 28.7258 42.3916 28.3044 41.5 28.2557C40.5597 28.2071 39.6195 28.6286 39.2466 29.5688L36.1017 37.4797L27.6234 37.9985C26.6832 38.0958 25.8402 38.6956 25.5646 39.6358C25.2404 40.5274 25.5646 41.5487 26.2617 42.1647L32.8271 47.5954L30.7197 55.7981C30.4927 56.7383 30.8656 57.711 31.6113 58.2784C32.4056 58.8458 33.4431 58.8944 34.2375 58.3756L41.5 53.8366L48.6166 58.3756C49.4109 58.8944 50.4484 58.8458 51.2427 58.2784C51.9884 57.711 52.3613 56.7383 52.1343 55.7981L50.0269 47.5954L56.5437 42.1647C57.2894 41.5649 57.565 40.5436 57.2894 39.652Z" fill="#FCA054"/>
    <path d="M56.5275 42.1807L50.0107 47.6114L52.1181 55.8141C52.3451 56.7543 51.9722 57.727 51.2265 58.2944C50.4322 58.8618 49.3947 58.9104 48.6004 58.3917L41.4838 53.8526V28.2717C42.3754 28.3204 43.267 28.7418 43.5912 29.5848L46.7361 37.4958L55.2144 38.0145C56.1547 38.1118 56.9976 38.7116 57.2732 39.6518C57.565 40.5434 57.2894 41.5647 56.5275 42.1807Z" fill="#FF7A00"/>
</svg>
